<svg width="29" height="14" viewBox="0 0 29 14" fill="none" xmlns="http://www.w3.org/2000/svg">
<path d="M21.6 0.199998C23.84 0.199998 25.6133 0.813332 26.92 2.04C28.2267 3.24 28.88 4.92 28.88 7.08C28.88 8.49333 28.56 9.72 27.92 10.76C27.28 11.8 26.4133 12.6 25.32 13.16C24.2533 13.72 23.0667 14 21.76 14C20.1867 14 18.8 13.6933 17.6 13.08C16.4267 12.4667 15.3067 11.6267 14.24 10.56C13.4667 11.6 12.4933 12.44 11.32 13.08C10.1467 13.6933 8.86667 14 7.48 14C5.24 14 3.46667 13.4 2.16 12.2C0.853333 10.9733 0.2 9.28 0.2 7.12C0.2 5.70667 0.52 4.48 1.16 3.44C1.8 2.4 2.65333 1.6 3.72 1.04C4.81333 0.479999 6.01333 0.199998 7.32 0.199998C8.94667 0.199998 10.3333 0.533332 11.48 1.2C12.6267 1.84 13.6933 2.73333 14.68 3.88C15.48 2.76 16.4667 1.86667 17.64 1.2C18.84 0.533332 20.16 0.199998 21.6 0.199998ZM7.88 9.44C8.54667 9.44 9.2 9.26667 9.84 8.92C10.5067 8.57333 11.0933 8.08 11.6 7.44C10.88 6.56 10.2267 5.89333 9.64 5.44C9.08 4.98667 8.49333 4.76 7.88 4.76C7.21333 4.76 6.66667 4.97333 6.24 5.4C5.81333 5.8 5.6 6.37333 5.6 7.12C5.6 7.86667 5.8 8.44 6.2 8.84C6.62667 9.24 7.18667 9.44 7.88 9.44ZM21.2 9.44C21.8667 9.44 22.4133 9.24 22.84 8.84C23.2667 8.41333 23.48 7.82667 23.48 7.08C23.48 6.33333 23.2667 5.76 22.84 5.36C22.44 4.96 21.8933 4.76 21.2 4.76C20.4533 4.76 19.72 4.97333 19 5.4C18.3067 5.8 17.72 6.37333 17.24 7.12C17.88 7.86667 18.5067 8.44 19.12 8.84C19.7333 9.24 20.4267 9.44 21.2 9.44Z" fill="#7C8794"/>
</svg>
