<svg width="25" height="23" viewBox="0 0 25 23" fill="none" xmlns="http://www.w3.org/2000/svg">
<path d="M24.75 11.0625C24.75 12.0938 24.1914 12.9961 23.332 13.4688V20C23.332 20.4297 23.0312 21.375 21.957 21.375C21.6562 21.375 21.3555 21.2891 21.1406 21.0742L17.4453 18.1523C15.6406 16.6914 13.3203 15.875 11 15.875H9.75391C9.66797 16.3477 9.58203 16.7773 9.58203 17.25C9.58203 18.5391 10.0117 19.6562 10.6992 20.6016C11.3867 21.5039 10.6992 22.75 9.58203 22.75H6.40234C5.88672 22.75 5.41406 22.4922 5.19922 22.0195C4.46875 20.6016 4.08203 18.9688 4.08203 17.25C4.08203 16.8203 4.125 16.3477 4.16797 15.875H2.75C1.20312 15.875 0 14.6719 0 13.125V9C0 7.49609 1.20312 6.25 2.75 6.25H11C13.3203 6.25 15.6406 5.47656 17.4453 4.01562L21.1406 1.09375C21.3555 0.878906 21.6562 0.75 22 0.75C23.0742 0.75 23.375 1.78125 23.375 2.16797V8.69922C24.1914 9.17188 24.75 10.0742 24.75 11.0625ZM20.625 17.1641V5.00391L19.1641 6.16406C16.8438 8.01172 13.9648 9 11 9V13.125C13.9648 13.125 16.8438 14.1562 19.1641 16.0039L20.625 17.1641Z" fill="#2722F2"/>
</svg>
