<svg width="22" height="17" viewBox="0 0 22 17" fill="none" xmlns="http://www.w3.org/2000/svg">
<path d="M14.2656 11.5C14.0078 11.5 13.75 11.2422 13.75 10.9844V5.18359C13.75 4.92578 14.0078 4.625 14.2656 4.625H15.9414C16.1992 4.625 16.5 4.92578 16.5 5.18359V10.9844C16.5 11.2422 16.1992 11.5 15.9414 11.5H14.2656ZM18.3906 11.5C18.1328 11.5 17.875 11.2422 17.875 10.9844V1.05859C17.875 0.800781 18.1328 0.5 18.3906 0.5H20.0664C20.3242 0.5 20.625 0.800781 20.625 1.05859V10.9844C20.625 11.2422 20.3242 11.5 20.0664 11.5H18.3906ZM6.01562 11.5C5.75781 11.5 5.5 11.2422 5.5 10.9844V7.93359C5.5 7.67578 5.75781 7.375 6.01562 7.375H7.69141C7.94922 7.375 8.25 7.67578 8.25 7.93359V10.9844C8.25 11.2422 7.94922 11.5 7.69141 11.5H6.01562ZM10.1406 11.5C9.88281 11.5 9.625 11.2422 9.625 10.9844V2.43359C9.625 2.17578 9.88281 1.875 10.1406 1.875H11.8164C12.0742 1.875 12.375 2.17578 12.375 2.43359V10.9844C12.375 11.2422 12.0742 11.5 11.8164 11.5H10.1406ZM21.3125 14.25C21.6562 14.25 22 14.5938 22 14.9375V16.3125C22 16.6992 21.6562 17 21.3125 17H1.375C0.601562 17 0 16.3984 0 15.625V1.1875C0 0.84375 0.300781 0.5 0.6875 0.5H2.0625C2.40625 0.5 2.75 0.84375 2.75 1.1875V14.25H21.3125Z" fill="#2722F2"/>
</svg>
