<svg width="24" height="24" viewBox="0 0 24 24" fill="none" xmlns="http://www.w3.org/2000/svg">
<g id="simple-icons:sololearn" clip-path="url(#clip0_49_95)">
<path id="Vector" d="M18.6196 16.0836C18.6226 17.3018 18.3632 18.5064 17.859 19.6155C17.3548 20.7245 16.6176 21.7119 15.6976 22.5106C15.0946 23.0406 15.5076 24.0326 16.3106 23.9526C16.8475 23.9001 17.3786 23.7997 17.8976 23.6526C19.291 23.2596 20.5578 22.5099 21.5727 21.4774C22.5876 20.4449 23.3156 19.1655 23.6846 17.7656C24.0356 16.4944 24.088 15.1593 23.8376 13.8646C23.5873 12.5699 23.0411 11.3505 22.2416 10.3018C21.4421 9.25314 20.411 8.40346 19.2288 7.81916C18.0466 7.23486 16.7453 6.93177 15.4266 6.93356C15.0774 6.93329 14.7285 6.95333 14.3816 6.99356C13.5876 7.09356 13.3866 8.15456 14.0916 8.53556C16.7926 9.98756 18.6216 12.8206 18.6216 16.0836H18.6196ZM7.90459 18.5966C6.68372 18.6004 5.47622 18.3424 4.36355 17.8398C3.25088 17.3373 2.25892 16.602 1.45459 15.6836C0.922591 15.0836 -0.0724087 15.4936 0.00859134 16.2936C0.0608179 16.8288 0.161225 17.3583 0.308591 17.8756C1.10259 20.6986 3.37259 22.9016 6.21559 23.6416C11.9426 25.1336 17.0856 20.8686 17.0856 15.4126C17.0856 15.0626 17.0656 14.7126 17.0256 14.3726C16.9256 13.5806 15.8606 13.3806 15.4786 14.0826C14.7413 15.4487 13.6479 16.5897 12.3143 17.3845C10.9808 18.1792 9.45699 18.5981 7.90459 18.5966ZM5.38059 7.91556C5.37782 6.69714 5.63756 5.49242 6.14212 4.38338C6.64669 3.27433 7.38424 2.287 8.30459 1.48856C8.90759 0.957557 8.49459 -0.0334429 7.69159 0.0465571C7.1519 0.0994284 6.61745 0.196419 6.09359 0.336557C4.70141 0.731519 3.43597 1.48198 2.42168 2.51415C1.40739 3.54632 0.679163 4.82468 0.308591 6.22356C-0.0423971 7.4947 -0.0947765 8.82977 0.155544 10.1245C0.405865 11.4192 0.952108 12.6386 1.75161 13.6873C2.55111 14.736 3.58223 15.5857 4.76442 16.17C5.94662 16.7543 7.24789 17.0573 8.56659 17.0556C8.91859 17.0556 9.27059 17.0356 9.61159 16.9956C10.4056 16.8956 10.6066 15.8336 9.90159 15.4536C8.53581 14.7248 7.39378 13.6384 6.59763 12.3107C5.80148 10.983 5.38015 9.46375 5.38059 7.91556ZM16.1006 5.40256C17.3215 5.39872 18.529 5.65676 19.6416 6.15928C20.7543 6.66179 21.7463 7.39708 22.5506 8.31556C23.0806 8.91556 24.0766 8.50556 23.9956 7.70556C23.9434 7.16994 23.843 6.64013 23.6956 6.12256C22.9006 3.29956 20.6306 1.09756 17.7866 0.356557C12.0696 -1.14544 6.92659 3.11956 6.92659 8.57556C6.92659 8.92556 6.94659 9.27556 6.98659 9.61656C7.08659 10.4076 8.15459 10.6076 8.53559 9.90656C9.27201 8.54291 10.364 7.40418 11.6957 6.61133C13.0273 5.81848 14.5488 5.40111 16.0986 5.40356L16.1006 5.40256Z" fill="white"/>
</g>
<defs>
<clipPath id="clip0_49_95">
<rect width="24" height="24" fill="white"/>
</clipPath>
</defs>
</svg>
