<svg width="36" height="36" viewBox="0 0 36 36" fill="none" xmlns="http://www.w3.org/2000/svg">
<g id="simple-icons:sololearn" clip-path="url(#clip0_389_1364)">
<path id="Vector" d="M27.9294 24.1258C27.9339 25.9532 27.5448 27.7602 26.7885 29.4237C26.0321 31.0873 24.9264 32.5684 23.5464 33.7663C22.6419 34.5613 23.2614 36.0493 24.4659 35.9293C25.2712 35.8507 26.0679 35.7001 26.8464 35.4793C28.9365 34.8899 30.8367 33.7653 32.3591 32.2166C33.8814 30.6679 34.9734 28.7488 35.5269 26.6488C36.0534 24.7421 36.1319 22.7395 35.7565 20.7974C35.381 18.8553 34.5616 17.0263 33.3624 15.4533C32.1631 13.8802 30.6164 12.6057 28.8431 11.7292C27.0698 10.8528 25.118 10.3981 23.1399 10.4008C22.6161 10.4004 22.0927 10.4305 21.5724 10.4908C20.3814 10.6408 20.0799 12.2323 21.1374 12.8038C25.1889 14.9818 27.9324 19.2313 27.9324 24.1258H27.9294ZM11.8569 27.8953C10.0256 27.9011 8.21433 27.514 6.54533 26.7602C4.87633 26.0065 3.38839 24.9035 2.18189 23.5258C1.38389 22.6258 -0.108613 23.2408 0.012887 24.4408C0.0912269 25.2437 0.241837 26.038 0.462887 26.8138C1.65389 31.0483 5.05889 34.3528 9.32339 35.4628C17.9139 37.7008 25.6284 31.3033 25.6284 23.1193C25.6284 22.5943 25.5984 22.0693 25.5384 21.5593C24 -5 -4.89644 13 8.5 17C1.60356 23.5 17.3468 24.2554 18.4715 26.0772C16.4712 27.2693 14.1855 27.8976 11.8569 27.8953ZM8.07089 11.8738C8.06674 10.0462 8.45634 8.23911 9.21319 6.57555C9.97003 4.91199 11.0764 3.43099 12.4569 2.23332C13.3614 1.43682 12.7419 -0.049676 11.5374 0.070324C10.7279 0.149631 9.92617 0.295117 9.14039 0.505324C7.05211 1.09777 5.15396 2.22345 3.63252 3.77171C2.11108 5.31997 1.01874 7.23751 0.462887 9.33582C-0.0635956 11.2425 -0.142165 13.2451 0.233316 15.1872C0.608797 17.1293 1.42816 18.9583 2.62742 20.5314C3.82667 22.1045 5.37334 23.379 7.14664 24.2554C8.91993 25.1319 10.8718 25.5865 12.8499 25.5838C13.3779 25.5838 13.9059 25.5538 14.4174 25.4938C15.6084 25.3438 15.9099 23.7508 14.8524 23.1808C12.8037 22.0877 11.0907 20.4581 9.89644 18.4665C8.70222 16.4749 8.07022 14.1961 8.07089 11.8738ZM24.1509 8.10432C25.9822 8.09857 27.7934 8.48563 29.4625 9.2394C31.1315 9.99317 32.6194 11.0961 33.8259 12.4738C34.6209 13.3738 36.1149 12.7588 35.9934 11.5588C35.9151 10.7554 35.7645 9.96068 35.5434 9.18432C34.3509 4.94982 30.9459 1.64682 26.6799 0.535324C18.1044 -1.71768 10.3899 4.67982 10.3899 12.8638C10.3899 13.3888 10.4199 13.9138 10.4799 14.4253C10.6299 15.6118 12.2319 15.9118 12.8034 14.8603C13.908 12.8149 15.546 11.1068 17.5435 9.91749C19.5409 8.72821 21.8232 8.10216 24.1479 8.10582L24.1509 8.10432Z" fill="white"/>
</g>
<defs>
<clipPath id="clip0_389_1364">
<rect width="36" height="36" fill="white"/>
</clipPath>
</defs>
</svg>
