<svg width="29" height="20" viewBox="0 0 29 20" fill="none" xmlns="http://www.w3.org/2000/svg">
<g id="Group 39551">
<path id="Vector" d="M19.125 19.1249C18.6469 19.1249 18.3281 18.9655 18.0094 18.6468C17.3719 18.0093 17.3719 17.053 18.0094 16.4155L25.978 8.44687C26.6155 7.80938 27.5718 7.80938 28.2093 8.44687C28.8468 9.08436 28.8468 10.0406 28.2093 10.6781L20.2406 18.6468C19.9219 18.9655 19.6031 19.1249 19.125 19.1249Z" fill="#2722F2"/>
<path id="Vector_2" d="M27.0937 11.1561C26.6155 11.1561 26.2968 10.9968 25.978 10.678L18.0094 2.70935C17.3719 2.07186 17.3719 1.11561 18.0094 0.478121C18.6469 -0.159373 19.6031 -0.159374 20.2406 0.478121L28.2093 8.4468C28.8468 9.08429 28.8468 10.0405 28.2093 10.678C27.8905 10.9968 27.5718 11.1561 27.0937 11.1561Z" fill="#2722F2"/>
<path id="Vector_3" d="M27.0935 11.1562H1.59374C0.637494 11.1562 0 10.5187 0 9.56248C0 8.60624 0.637494 7.96875 1.59374 7.96875H27.0935C28.0497 7.96875 28.6872 8.60624 28.6872 9.56248C28.6872 10.5187 28.0497 11.1562 27.0935 11.1562Z" fill="#2722F2"/>
</g>
</svg>
