<svg width="396" height="170" viewBox="0 0 396 170" fill="none" xmlns="http://www.w3.org/2000/svg">
<path opacity="0.15" d="M42.952 158.72L41.4738 161.331L41.4804 161.334L41.4871 161.338L42.952 158.72ZM12.328 128.56L9.7446 130.085H9.7446L12.328 128.56ZM42.952 11.864L44.4063 14.488L44.4169 14.482L42.952 11.864ZM128.096 11.864L126.618 14.4745L126.63 14.4813L126.642 14.488L128.096 11.864ZM158.488 41.792L155.891 43.2939L155.898 43.3055L155.905 43.3171L158.488 41.792ZM158.488 128.56L155.905 127.035L155.898 127.046L155.891 127.058L158.488 128.56ZM127.864 158.72L126.399 156.102L126.392 156.106L126.386 156.109L127.864 158.72ZM109.304 111.856L111.582 113.808L111.593 113.795L111.604 113.782L109.304 111.856ZM109.304 58.496L107.004 60.4218L107.015 60.4352L107.026 60.4484L109.304 58.496ZM61.744 58.496L64.0218 60.4484L64.0331 60.4352L64.0443 60.4218L61.744 58.496ZM61.744 111.856L59.4437 113.782L59.4549 113.795L59.4662 113.808L61.744 111.856ZM85.64 166.624C70.6655 166.624 56.9435 163.111 44.4169 156.102L41.4871 161.338C54.9445 168.868 69.6812 172.624 85.64 172.624V166.624ZM44.4302 156.109C32.055 149.102 22.226 139.425 14.9114 127.035L9.7446 130.085C17.5873 143.37 28.1744 153.8 41.4738 161.331L44.4302 156.109ZM14.9114 127.035C7.62694 114.696 3.96 100.769 3.96 85.176H-2.04C-2.04 101.754 1.87173 116.749 9.7446 130.085L14.9114 127.035ZM3.96 85.176C3.96 69.5833 7.62694 55.6561 14.9114 43.3171L9.7446 40.2669C1.87173 53.6025 -2.04 68.598 -2.04 85.176H3.96ZM14.9114 43.3171C22.2228 30.9325 32.0441 21.3392 44.4062 14.488L41.4978 9.24003C28.1852 16.6181 17.5905 26.9768 9.7446 40.2669L14.9114 43.3171ZM44.4169 14.482C56.9435 7.47311 70.6655 3.95999 85.64 3.95999V-2.04001C69.6812 -2.04001 54.9445 1.71622 41.4871 9.24594L44.4169 14.482ZM85.64 3.95999C100.615 3.95999 114.253 7.47301 126.618 14.4745L129.574 9.25348C116.264 1.7163 101.599 -2.04001 85.64 -2.04001V3.95999ZM126.642 14.488C138.998 21.3362 148.736 30.9221 155.891 43.2939L161.085 40.2901C153.392 26.9873 142.868 16.6211 129.55 9.24003L126.642 14.488ZM155.905 43.3171C163.189 55.6561 166.856 69.5833 166.856 85.176H172.856C172.856 68.598 168.944 53.6025 161.071 40.2669L155.905 43.3171ZM166.856 85.176C166.856 100.769 163.189 114.696 155.905 127.035L161.071 130.085C168.944 116.749 172.856 101.754 172.856 85.176H166.856ZM155.891 127.058C148.738 139.426 138.922 149.095 126.399 156.102L129.329 161.338C142.79 153.806 153.39 143.368 161.085 130.062L155.891 127.058ZM126.386 156.109C114.017 163.114 100.454 166.624 85.64 166.624V172.624C101.45 172.624 116.037 168.865 129.342 161.331L126.386 156.109ZM85.64 124.6C96.5378 124.6 105.333 121.099 111.582 113.808L107.026 109.904C102.139 115.605 95.1582 118.6 85.64 118.6V124.6ZM111.604 113.782C117.74 106.453 120.656 96.8122 120.656 85.176H114.656C114.656 95.8118 112.004 103.958 107.004 109.93L111.604 113.782ZM120.656 85.176C120.656 73.4013 117.747 63.7369 111.582 56.5436L107.026 60.4484C111.997 66.2471 114.656 74.3694 114.656 85.176H120.656ZM111.604 56.5702C105.363 49.1155 96.5618 45.52 85.64 45.52V51.52C95.1343 51.52 102.109 54.5751 107.004 60.4218L111.604 56.5702ZM85.64 45.52C74.5802 45.52 65.6938 49.1048 59.4437 56.5702L64.0443 60.4218C68.9302 54.5859 75.9744 51.52 85.64 51.52V45.52ZM59.4662 56.5436C53.3006 63.7369 50.392 73.4013 50.392 85.176H56.392C56.392 74.3694 59.0514 66.2471 64.0218 60.4484L59.4662 56.5436ZM50.392 85.176C50.392 96.8122 53.3081 106.453 59.4437 113.782L64.0443 109.93C59.0439 103.958 56.392 95.8118 56.392 85.176H50.392ZM59.4662 113.808C65.7239 121.109 74.604 124.6 85.64 124.6V118.6C75.9507 118.6 68.9001 115.595 64.0218 109.904L59.4662 113.808ZM293.764 143.176L296.615 142.243L295.939 140.176H293.764V143.176ZM239.012 143.176V140.176H236.837L236.161 142.243L239.012 143.176ZM230.892 168V171H233.067L233.743 168.933L230.892 168ZM176.836 168L174.019 166.969L172.544 171H176.836V168ZM236.924 3.744V0.743996H234.827L234.107 2.71334L236.924 3.744ZM296.316 3.744L299.135 2.71685L298.416 0.743996H296.316V3.744ZM356.172 168V171H360.458L358.991 166.973L356.172 168ZM301.884 168L299.033 168.933L299.709 171H301.884V168ZM281.236 104.432V107.432H285.365L284.089 103.505L281.236 104.432ZM266.388 58.728L269.241 57.8011L266.388 49.0185L263.535 57.8011L266.388 58.728ZM251.54 104.432L248.687 103.505L247.411 107.432H251.54V104.432ZM293.764 140.176H239.012V146.176H293.764V140.176ZM236.161 142.243L228.041 167.067L233.743 168.933L241.863 144.109L236.161 142.243ZM230.892 165H176.836V171H230.892V165ZM179.653 169.031L239.741 4.77466L234.107 2.71334L174.019 166.969L179.653 169.031ZM236.924 6.744H296.316V0.743996H236.924V6.744ZM293.497 4.77115L353.353 169.027L358.991 166.973L299.135 2.71685L293.497 4.77115ZM356.172 165H301.884V171H356.172V165ZM304.735 167.067L296.615 142.243L290.913 144.109L299.033 168.933L304.735 167.067ZM284.089 103.505L269.241 57.8011L263.535 59.6549L278.383 105.359L284.089 103.505ZM263.535 57.8011L248.687 103.505L254.393 105.359L269.241 59.6549L263.535 57.8011ZM251.54 107.432H281.236V101.432H251.54V107.432ZM383.417 155.936L381.646 158.357L381.663 158.369L381.679 158.381L383.417 155.936ZM362.769 115.336V112.336H359.581L359.775 115.518L362.769 115.336ZM417.521 115.336L420.511 115.091L420.286 112.336H417.521V115.336ZM437.009 127.632L438.674 130.128L438.695 130.114L438.717 130.099L437.009 127.632ZM433.761 112.088L432.232 114.669L432.268 114.69L432.305 114.71L433.761 112.088ZM414.273 103.736L413.275 106.565L413.28 106.567L414.273 103.736ZM388.057 92.832L386.668 95.4907L386.68 95.497L386.692 95.5033L388.057 92.832ZM370.425 77.288L372.852 75.5235L370.425 77.288ZM363.233 51.072L366.233 51.1155L366.233 51.0937V51.072H363.233ZM371.353 23.928L368.936 22.1517L368.929 22.1605L371.353 23.928ZM393.857 6.75999L392.736 3.97766L392.728 3.98084L392.72 3.98407L393.857 6.75999ZM473.897 14.88L472.039 17.2346L472.046 17.2405L472.053 17.2464L473.897 14.88ZM492.689 54.088V57.088H495.802L495.687 53.978L492.689 54.088ZM437.241 54.088L434.243 54.1879L434.34 57.088H437.241V54.088ZM420.537 43.416L422.659 45.5373L422.715 45.4815L422.767 45.4229L420.537 43.416ZM424.481 58.728L422.909 61.283L422.966 61.318L423.025 61.3505L424.481 58.728ZM444.201 67.312L443.137 70.117L443.145 70.1199L443.153 70.1227L444.201 67.312ZM469.721 78.448L468.306 81.0934L468.319 81.1001L468.332 81.1067L469.721 78.448ZM487.353 93.296L484.988 95.1418L487.353 93.296ZM487.353 144.336L489.895 145.93L489.902 145.919L489.908 145.908L487.353 144.336ZM465.777 162.896L464.489 160.187L465.777 162.896ZM432.137 166.624C412.962 166.624 397.372 162.175 385.156 153.491L381.679 158.381C395.138 167.948 412.027 172.624 432.137 172.624V166.624ZM385.189 153.515C373.329 144.837 366.8 132.183 365.764 115.154L359.775 115.518C360.904 134.062 368.141 148.475 381.646 158.357L385.189 153.515ZM362.769 118.336H417.521V112.336H362.769V118.336ZM414.531 115.581C414.946 120.636 416.302 124.905 418.987 127.939C421.76 131.07 425.591 132.488 430.049 132.488V126.488C426.929 126.488 424.883 125.547 423.48 123.961C421.989 122.278 420.87 119.47 420.511 115.091L414.531 115.581ZM430.049 132.488C433.278 132.488 436.215 131.767 438.674 130.128L435.345 125.136C434.092 125.971 432.388 126.488 430.049 126.488V132.488ZM438.717 130.099C441.659 128.062 443.025 124.978 443.025 121.368H437.025C437.025 123.326 436.381 124.418 435.302 125.165L438.717 130.099ZM443.025 121.368C443.025 116.14 440.083 112.168 435.218 109.466L432.305 114.71C435.792 116.648 437.025 118.863 437.025 121.368H443.025ZM435.291 109.507C430.854 106.878 424.132 104.016 415.267 100.905L413.28 106.567C422.047 109.643 428.317 112.349 432.232 114.669L435.291 109.507ZM415.272 100.907C404.832 97.2224 396.226 93.6379 389.423 90.1607L386.692 95.5033C393.809 99.1408 402.68 102.826 413.275 106.565L415.272 100.907ZM389.447 90.1733C383.09 86.8501 377.556 81.9913 372.852 75.5235L367.999 79.0525C373.194 86.1954 379.414 91.6992 386.668 95.4907L389.447 90.1733ZM372.852 75.5235C368.376 69.3693 366.085 61.3145 366.233 51.1155L360.234 51.0285C360.072 62.1734 362.576 71.596 367.999 79.0525L372.852 75.5235ZM366.233 51.072C366.233 40.9291 368.797 32.5265 373.777 25.6955L368.929 22.1605C363.084 30.1775 360.233 39.8709 360.233 51.072H366.233ZM373.771 25.7042C378.985 18.6074 386.026 13.2116 394.995 9.5359L392.72 3.98407C382.819 8.04169 374.858 14.0912 368.936 22.1518L373.771 25.7042ZM394.979 9.54231C404.162 5.83955 414.523 3.95999 426.105 3.95999V-2.04001C413.869 -2.04001 402.731 -0.0528946 392.736 3.97766L394.979 9.54231ZM426.105 3.95999C445.768 3.95999 460.969 8.49595 472.039 17.2346L475.756 12.5253C463.316 2.70404 446.656 -2.04001 426.105 -2.04001V3.95999ZM472.053 17.2464C483.176 25.9136 489.101 38.108 489.691 54.198L495.687 53.978C495.041 36.3507 488.437 22.4064 475.741 12.5136L472.053 17.2464ZM492.689 51.088H437.241V57.088H492.689V51.088ZM440.24 53.9881C440.073 48.992 438.814 44.7097 435.803 41.9136L431.72 46.3104C433.04 47.5356 434.1 49.9039 434.243 54.1879L440.24 53.9881ZM435.803 41.9136C433.055 39.3617 429.685 38.096 425.873 38.096V44.096C428.249 44.096 430.138 44.8409 431.72 46.3104L435.803 41.9136ZM425.873 38.096C422.897 38.096 420.294 39.2017 418.308 41.4091L422.767 45.4229C423.565 44.5369 424.519 44.096 425.873 44.096V38.096ZM418.416 41.2947C416.293 43.4181 415.449 46.2987 415.449 49.448H421.449C421.449 47.3386 421.998 46.1979 422.659 45.5373L418.416 41.2947ZM415.449 49.448C415.449 54.4894 418.277 58.4322 422.909 61.283L426.054 56.173C422.644 54.0744 421.449 51.8306 421.449 49.448H415.449ZM423.025 61.3505C427.398 63.78 434.138 66.7033 443.137 70.117L445.265 64.507C436.324 61.1153 429.917 58.3159 425.938 56.1055L423.025 61.3505ZM443.153 70.1227C453.442 73.962 461.815 77.621 468.306 81.0934L471.136 75.8026C464.327 72.1603 455.686 68.3954 445.25 64.5013L443.153 70.1227ZM468.332 81.1067C474.74 84.4563 480.29 89.1215 484.988 95.1418L489.718 91.4502C484.519 84.7878 478.314 79.5544 471.111 75.7893L468.332 81.1067ZM484.988 95.1418C489.451 100.86 491.777 108.138 491.777 117.192H497.777C497.777 107.067 495.154 98.4149 489.718 91.4502L484.988 95.1418ZM491.777 117.192C491.777 126.728 489.438 135.225 484.798 142.764L489.908 145.908C495.168 137.362 497.777 127.763 497.777 117.192H491.777ZM484.812 142.742C480.202 150.089 473.474 155.915 464.489 160.187L467.066 165.605C476.951 160.906 484.606 154.359 489.895 145.93L484.812 142.742ZM464.489 160.187C455.543 164.44 444.79 166.624 432.137 166.624V172.624C445.469 172.624 457.143 170.323 467.066 165.605L464.489 160.187Z" fill="white"/>
</svg>
