<svg width="254" height="169" viewBox="0 0 254 169" fill="none" xmlns="http://www.w3.org/2000/svg">
<path opacity="0.15" d="M-76.9379 154.972L-78.7094 157.393L-78.6928 157.406L-78.676 157.418L-76.9379 154.972ZM-97.5236 114.495V111.495H-100.712L-100.518 114.677L-97.5236 114.495ZM-42.9368 114.495L-39.9468 114.25L-40.1726 111.495H-42.9368V114.495ZM-23.5076 126.754L-21.8435 129.25L-21.8216 129.235L-21.8 129.22L-23.5076 126.754ZM-26.7458 111.257L-28.2752 113.838L-28.2393 113.859L-28.2027 113.879L-26.7458 111.257ZM-46.175 102.93L-47.1735 105.759L-47.1683 105.761L-46.175 102.93ZM-72.3119 92.0588L-73.7017 94.7175L-73.6895 94.7238L-73.6772 94.7301L-72.3119 92.0588ZM-89.8907 76.5617L-87.4645 74.7972H-87.4645L-89.8907 76.5617ZM-97.061 50.4248L-94.0613 50.4683L-94.061 50.4465V50.4248H-97.061ZM-88.9655 23.3627L-91.3832 21.5864L-91.3895 21.5952L-88.9655 23.3627ZM-66.5294 6.24648L-67.6513 3.46416L-67.6592 3.46735L-67.6671 3.47057L-66.5294 6.24648ZM13.2691 14.342L11.4102 16.6966L11.4176 16.7025L11.4252 16.7084L13.2691 14.342ZM32.0044 53.4317V56.4317H35.1165L35.0024 53.3217L32.0044 53.4317ZM-23.2763 53.4317L-26.2746 53.5316L-26.178 56.4317H-23.2763V53.4317ZM-39.9299 42.7919L-37.8086 44.9132L-37.7528 44.8574L-37.7 44.7988L-39.9299 42.7919ZM-35.9978 58.0577L-37.5701 60.6127L-37.5132 60.6477L-37.4547 60.6802L-35.9978 58.0577ZM-16.3373 66.6158L-17.4013 69.4208L-17.3937 69.4237L-17.3861 69.4265L-16.3373 66.6158ZM9.10571 77.7182L7.69075 80.3636L7.70332 80.3703L7.71594 80.3769L9.10571 77.7182ZM26.6845 92.5214L24.3195 94.3672L26.6845 92.5214ZM26.6845 143.407L29.2257 145.002L29.2326 144.991L29.2395 144.98L26.6845 143.407ZM5.17361 161.911L3.88554 159.202L5.17361 161.911ZM-28.3649 165.619C-47.4808 165.619 -63.0224 161.183 -75.1998 152.527L-78.676 157.418C-65.2562 166.957 -48.4158 171.619 -28.3649 171.619V165.619ZM-75.1664 152.551C-86.9885 143.901 -93.4958 131.289 -94.5291 114.313L-100.518 114.677C-99.3926 133.167 -92.1761 147.54 -78.7094 157.393L-75.1664 152.551ZM-97.5236 117.495H-42.9368V111.495H-97.5236V117.495ZM-45.9268 114.74C-45.5136 119.781 -44.1615 124.039 -41.4823 127.065C-38.7162 130.19 -34.8934 131.604 -30.4466 131.604V125.604C-33.5556 125.604 -35.5924 124.667 -36.9897 123.088C-38.4739 121.412 -39.589 118.615 -39.9468 114.25L-45.9268 114.74ZM-30.4466 131.604C-27.226 131.604 -24.2964 130.885 -21.8435 129.25L-25.1717 124.258C-26.4196 125.09 -28.116 125.604 -30.4466 125.604V131.604ZM-21.8 129.22C-18.8642 127.188 -17.5007 124.111 -17.5007 120.509H-23.5007C-23.5007 122.458 -24.1418 123.544 -25.2152 124.287L-21.8 129.22ZM-17.5007 120.509C-17.5007 115.292 -20.4372 111.33 -25.2889 108.634L-28.2027 113.879C-24.7275 115.81 -23.5007 118.015 -23.5007 120.509H-17.5007ZM-25.2164 108.676C-29.641 106.054 -36.3433 103.2 -45.1817 100.099L-47.1683 105.761C-38.4279 108.828 -32.1774 111.525 -28.2752 113.838L-25.2164 108.676ZM-45.1765 100.101C-55.5847 96.4274 -64.1644 92.8539 -70.9466 89.3875L-73.6772 94.7301C-66.5814 98.3569 -57.7365 102.031 -47.1735 105.759L-45.1765 100.101ZM-70.9221 89.4001C-77.2591 86.0876 -82.7756 81.2444 -87.4645 74.7972L-92.3169 78.3262C-87.137 85.4485 -80.9343 90.9368 -73.7017 94.7175L-70.9221 89.4001ZM-87.4645 74.7972C-91.9253 68.6635 -94.2087 60.6351 -94.0613 50.4683L-100.061 50.3813C-100.222 61.494 -97.7249 70.8902 -92.3169 78.3262L-87.4645 74.7972ZM-94.061 50.4248C-94.061 40.3141 -91.5061 31.9388 -86.5415 25.1302L-91.3895 21.5952C-97.2189 29.5898 -100.061 39.2559 -100.061 50.4248H-94.061ZM-86.5479 25.1389C-81.3507 18.065 -74.332 12.6865 -65.3917 9.0224L-67.6671 3.47057C-77.5392 7.51652 -85.4779 13.5488 -91.3831 21.5865L-86.5479 25.1389ZM-65.4075 9.02881C-56.2536 5.33772 -45.9254 3.46399 -34.3787 3.46399V-2.53601C-46.5788 -2.53601 -57.6844 -0.554733 -67.6513 3.46416L-65.4075 9.02881ZM-34.3787 3.46399C-14.7769 3.46399 0.376625 7.98595 11.4102 16.6966L15.128 11.9873C2.72319 2.19404 -13.8885 -2.53601 -34.3787 -2.53601V3.46399ZM11.4252 16.7084C22.5121 25.3475 28.4178 37.5025 29.0064 53.5417L35.0024 53.3217C34.3574 35.7452 27.7729 21.8404 15.1131 11.9756L11.4252 16.7084ZM32.0044 50.4317H-23.2763V56.4317H32.0044V50.4317ZM-20.278 53.3318C-20.444 48.3497 -21.6998 44.0775 -24.7044 41.2874L-28.7871 45.6842C-27.4742 46.9033 -26.417 49.2616 -26.2746 53.5316L-20.278 53.3318ZM-24.7044 41.2874C-27.4461 38.7416 -30.8078 37.4789 -34.61 37.4789V43.4789C-32.2442 43.4789 -30.3631 44.2208 -28.7871 45.6842L-24.7044 41.2874ZM-34.61 37.4789C-37.5801 37.4789 -40.1774 38.5823 -42.1598 40.785L-37.7 44.7988C-36.9068 43.9175 -35.9575 43.4789 -34.61 43.4789V37.4789ZM-42.0512 40.6706C-44.1705 42.7898 -45.0116 45.6644 -45.0116 48.8057H-39.0116C-39.0116 46.7042 -38.4649 45.5696 -37.8086 44.9132L-42.0512 40.6706ZM-45.0116 48.8057C-45.0116 53.8359 -42.1905 57.7694 -37.5701 60.6127L-34.4255 55.5027C-37.8235 53.4116 -39.0116 51.1771 -39.0116 48.8057H-45.0116ZM-37.4547 60.6802C-33.0941 63.1027 -26.3739 66.0174 -17.4013 69.4208L-15.2733 63.8108C-24.1879 60.4294 -30.5747 57.6387 -34.5409 55.4352L-37.4547 60.6802ZM-17.3861 69.4265C-7.12811 73.2541 1.219 76.9019 7.69075 80.3636L10.5207 75.0728C3.73121 71.4413 -4.88368 67.6875 -15.2885 63.8051L-17.3861 69.4265ZM7.71594 80.3769C14.1034 83.7158 19.6357 88.366 24.3195 94.3672L29.0495 90.6756C23.8645 84.0324 17.6776 78.8138 10.4955 75.0595L7.71594 80.3769ZM24.3195 94.3672C28.7674 100.066 31.0861 107.321 31.0861 116.345H37.0861C37.0861 106.249 34.4704 97.6211 29.0495 90.6756L24.3195 94.3672ZM31.0861 116.345C31.0861 125.85 28.754 134.32 24.1295 141.835L29.2395 144.98C34.4838 136.458 37.0861 126.886 37.0861 116.345H31.0861ZM24.1433 141.813C19.5481 149.137 12.8412 154.944 3.88554 159.202L6.46169 164.621C16.3184 159.935 23.9522 153.407 29.2257 145.002L24.1433 141.813ZM3.88554 159.202C-5.03244 163.442 -15.7518 165.619 -28.3649 165.619V171.619C-15.0724 171.619 -3.43275 169.325 6.46169 164.621L3.88554 159.202ZM103.476 3.23959H106.476V0.239594H103.476V3.23959ZM103.476 167V170H106.476V167H103.476ZM52.1275 167H49.1275V170H52.1275V167ZM52.1275 3.23959V0.239594H49.1275V3.23959H52.1275ZM100.476 3.23959V167H106.476V3.23959H100.476ZM103.476 164H52.1275V170H103.476V164ZM55.1275 167V3.23959H49.1275V167H55.1275ZM52.1275 6.23959H103.476V0.239594H52.1275V6.23959ZM142.165 154.972L140.393 157.393L140.41 157.406L140.426 157.418L142.165 154.972ZM121.579 114.495V111.495H118.391L118.584 114.677L121.579 114.495ZM176.166 114.495L179.156 114.25L178.93 111.495H176.166V114.495ZM195.595 126.754L197.259 129.25L197.281 129.235L197.303 129.22L195.595 126.754ZM192.357 111.257L190.827 113.838L190.863 113.859L190.9 113.879L192.357 111.257ZM172.928 102.93L171.929 105.759L171.934 105.761L172.928 102.93ZM146.791 92.0588L145.401 94.7175L145.413 94.7238L145.425 94.7301L146.791 92.0588ZM129.212 76.5617L131.638 74.7972L129.212 76.5617ZM122.042 50.4248L125.041 50.4683L125.042 50.4465V50.4248H122.042ZM130.137 23.3627L127.719 21.5864L127.713 21.5952L130.137 23.3627ZM152.573 6.24648L151.451 3.46416L151.443 3.46735L151.435 3.47057L152.573 6.24648ZM232.372 14.342L230.513 16.6966L230.52 16.7025L230.528 16.7084L232.372 14.342ZM251.107 53.4317V56.4317H254.219L254.105 53.3217L251.107 53.4317ZM195.826 53.4317L192.828 53.5316L192.925 56.4317H195.826V53.4317ZM179.173 42.7919L181.294 44.9132L181.35 44.8574L181.403 44.7988L179.173 42.7919ZM183.105 58.0577L181.532 60.6127L181.589 60.6477L181.648 60.6802L183.105 58.0577ZM202.765 66.6158L201.701 69.4208L201.709 69.4237L201.716 69.4265L202.765 66.6158ZM228.208 77.7182L226.793 80.3636L226.806 80.3703L226.818 80.3769L228.208 77.7182ZM245.787 92.5214L243.422 94.3672L245.787 92.5214ZM245.787 143.407L248.328 145.002L248.335 144.991L248.342 144.98L245.787 143.407ZM224.276 161.911L222.988 159.202L224.276 161.911ZM190.738 165.619C171.622 165.619 156.08 161.183 143.903 152.527L140.426 157.418C153.846 166.957 170.687 171.619 190.738 171.619V165.619ZM143.936 152.551C132.114 143.901 125.607 131.289 124.573 114.313L118.584 114.677C119.71 133.167 126.926 147.54 140.393 157.393L143.936 152.551ZM121.579 117.495H176.166V111.495H121.579V117.495ZM173.176 114.74C173.589 119.781 174.941 124.039 177.62 127.065C180.386 130.19 184.209 131.604 188.656 131.604V125.604C185.547 125.604 183.51 124.667 182.113 123.088C180.629 121.412 179.514 118.615 179.156 114.25L173.176 114.74ZM188.656 131.604C191.877 131.604 194.806 130.885 197.259 129.25L193.931 124.258C192.683 125.09 190.987 125.604 188.656 125.604V131.604ZM197.303 129.22C200.238 127.188 201.602 124.111 201.602 120.509H195.602C195.602 122.458 194.961 123.544 193.887 124.287L197.303 129.22ZM201.602 120.509C201.602 115.292 198.665 111.33 193.814 108.634L190.9 113.879C194.375 115.81 195.602 118.015 195.602 120.509H201.602ZM193.886 108.676C189.462 106.054 182.759 103.2 173.921 100.099L171.934 105.761C180.675 108.828 186.925 111.525 190.827 113.838L193.886 108.676ZM173.926 100.101C163.518 96.4274 154.938 92.8539 148.156 89.3875L145.425 94.7301C152.521 98.3569 161.366 102.031 171.929 105.759L173.926 100.101ZM148.18 89.4001C141.843 86.0876 136.327 81.2444 131.638 74.7972L126.786 78.3262C131.966 85.4485 138.168 90.9368 145.401 94.7175L148.18 89.4001ZM131.638 74.7972C127.177 68.6635 124.894 60.6351 125.041 50.4683L119.042 50.3813C118.881 61.494 121.378 70.8902 126.786 78.3262L131.638 74.7972ZM125.042 50.4248C125.042 40.3141 127.596 31.9388 132.561 25.1302L127.713 21.5952C121.884 29.5898 119.042 39.2559 119.042 50.4248H125.042ZM132.555 25.1389C137.752 18.065 144.771 12.6865 153.711 9.0224L151.435 3.47057C141.563 7.51652 133.625 13.5488 127.719 21.5865L132.555 25.1389ZM153.695 9.02881C162.849 5.33772 173.177 3.46399 184.724 3.46399V-2.53601C172.524 -2.53601 161.418 -0.554733 151.451 3.46416L153.695 9.02881ZM184.724 3.46399C204.326 3.46399 219.479 7.98595 230.513 16.6966L234.231 11.9873C221.826 2.19404 205.214 -2.53601 184.724 -2.53601V3.46399ZM230.528 16.7084C241.615 25.3475 247.52 37.5025 248.109 53.5417L254.105 53.3217C253.46 35.7452 246.875 21.8404 234.216 11.9756L230.528 16.7084ZM251.107 50.4317H195.826V56.4317H251.107V50.4317ZM198.825 53.3318C198.659 48.3497 197.403 44.0775 194.398 41.2874L190.315 45.6842C191.628 46.9033 192.686 49.2616 192.828 53.5316L198.825 53.3318ZM194.398 41.2874C191.656 38.7416 188.295 37.4789 184.493 37.4789V43.4789C186.858 43.4789 188.739 44.2208 190.315 45.6842L194.398 41.2874ZM184.493 37.4789C181.522 37.4789 178.925 38.5823 176.943 40.785L181.403 44.7988C182.196 43.9175 183.145 43.4789 184.493 43.4789V37.4789ZM177.051 40.6706C174.932 42.7898 174.091 45.6644 174.091 48.8057H180.091C180.091 46.7042 180.638 45.5696 181.294 44.9132L177.051 40.6706ZM174.091 48.8057C174.091 53.8359 176.912 57.7694 181.532 60.6127L184.677 55.5027C181.279 53.4116 180.091 51.1771 180.091 48.8057H174.091ZM181.648 60.6802C186.008 63.1027 192.729 66.0174 201.701 69.4208L203.829 63.8108C194.915 60.4294 188.528 57.6387 184.562 55.4352L181.648 60.6802ZM201.716 69.4265C211.974 73.2541 220.322 76.9019 226.793 80.3636L229.623 75.0728C222.834 71.4413 214.219 67.6875 203.814 63.8051L201.716 69.4265ZM226.818 80.3769C233.206 83.7158 238.738 88.366 243.422 94.3672L248.152 90.6756C242.967 84.0324 236.78 78.8138 229.598 75.0595L226.818 80.3769ZM243.422 94.3672C247.87 100.066 250.189 107.321 250.189 116.345H256.189C256.189 106.249 253.573 97.6211 248.152 90.6756L243.422 94.3672ZM250.189 116.345C250.189 125.85 247.857 134.32 243.232 141.835L248.342 144.98C253.586 136.458 256.189 126.886 256.189 116.345H250.189ZM243.246 141.813C238.651 149.137 231.944 154.944 222.988 159.202L225.564 164.621C235.421 159.935 243.055 153.407 248.328 145.002L243.246 141.813ZM222.988 159.202C214.07 163.442 203.351 165.619 190.738 165.619V171.619C204.03 171.619 215.67 169.325 225.564 164.621L222.988 159.202Z" fill="white"/>
</svg>
